<svg width="43" height="43" viewBox="0 0 43 43" fill="none" xmlns="http://www.w3.org/2000/svg">
<path d="M24.5446 30.086C24.5446 32.0437 22.9576 33.6306 21 33.6306C19.0424 33.6306 17.4554 32.0437 17.4554 30.086M23.1226 15.008C23.6372 14.4764 23.9538 13.7521 23.9538 12.9538C23.9538 11.3225 22.6314 10 21 10C19.3686 10 18.0462 11.3225 18.0462 12.9538C18.0462 13.7521 18.3628 14.4764 18.8774 15.008M28.0892 20.8701C28.0892 19.2406 27.3423 17.6779 26.0128 16.5257C24.6833 15.3734 22.8802 14.7261 21 14.7261C19.1198 14.7261 17.3167 15.3734 15.9872 16.5257C14.6577 17.6779 13.9108 19.2406 13.9108 20.8701C13.9108 23.5661 13.2422 25.5378 12.408 26.9487C11.4572 28.5567 10.9818 29.3607 11.0005 29.5528C11.022 29.7725 11.0616 29.8418 11.2398 29.9721C11.3955 30.086 12.1781 30.086 13.7433 30.086H28.2567C29.8219 30.086 30.6045 30.086 30.7602 29.9721C30.9384 29.8418 30.978 29.7725 30.9995 29.5528C31.0182 29.3607 30.5428 28.5567 29.592 26.9487C28.7578 25.5378 28.0892 23.5661 28.0892 20.8701Z" stroke="#333333" stroke-width="1.67" stroke-linecap="round" stroke-linejoin="round"/>
</svg>
