<svg width="22" height="18" viewBox="0 0 22 18" fill="none" xmlns="http://www.w3.org/2000/svg">
<path d="M14.3397 9.81803C14.3397 11.6614 12.8454 13.1558 11.0019 13.1558C9.15851 13.1558 7.66406 11.6614 7.66406 9.81803C7.66406 7.97464 9.15847 6.48022 11.0019 6.48022C12.8454 6.48022 14.3397 7.97464 14.3397 9.81803" fill="black"/>
<path d="M21.4967 5.2055C21.4962 4.14004 20.6292 3.27317 19.5637 3.27317H17.4737C17.286 3.27317 17.1096 3.20008 16.977 3.06748L15.1424 1.23289C14.7775 0.867917 14.2921 0.666687 13.7758 0.666687L8.22394 0.666841C7.70771 0.666841 7.22215 0.867909 6.85734 1.23304L5.02275 3.06763C4.89015 3.20024 4.71375 3.27332 4.5261 3.27332H2.43604C1.37058 3.27332 0.503558 4.14019 0.503084 5.20565L0.5 15.7477C0.5 16.8135 1.36703 17.6807 2.43296 17.6807H19.567C20.6328 17.6807 21.5 16.8137 21.5 15.7477L21.4967 5.2055ZM11.002 14.3861C8.48312 14.3861 6.43376 12.3368 6.43376 9.81793C6.43376 7.29907 8.48312 5.24971 11.002 5.24971C13.5208 5.24971 15.5702 7.29907 15.5702 9.81793C15.5702 12.3368 13.521 14.3861 11.002 14.3861Z" fill="black"/>
</svg>
