<svg width="20" height="16" viewBox="0 0 20 16" fill="none" xmlns="http://www.w3.org/2000/svg">
<path d="M10.0955 8.4974C9.73184 7.94247 9.27263 7.48309 8.73663 7.11946C8.66013 7.06206 8.56441 7.08115 8.48779 7.13855C7.79882 7.63611 6.95671 7.94235 6.03812 7.94235C5.11953 7.94235 4.27742 7.65534 3.58845 7.13855C3.51195 7.08115 3.41623 7.08115 3.33961 7.11946C1.71294 8.17209 0.90918 10.2199 0.90918 12.5738C0.90918 13.569 4.79421 13.9518 7.79888 13.7222C7.93278 11.5021 8.73658 9.66489 10.0954 8.49747L10.0955 8.4974Z" fill="#848484"/>
<path d="M9.10123 3.78943C9.10123 5.48055 7.73036 6.85145 6.03907 6.85145C4.34795 6.85145 2.97705 5.48059 2.97705 3.78943C2.97705 2.09817 4.34792 0.727273 6.03907 0.727273C7.73033 0.727273 9.10123 2.09814 9.10123 3.78943Z" fill="#848484"/>
<path d="M16.6604 8.9567C16.5839 8.8993 16.4882 8.91839 16.4116 8.97579C15.7226 9.47335 14.8805 9.77959 13.9619 9.77959C13.0433 9.77959 12.2012 9.47335 11.5122 8.97579C11.4358 8.91839 11.34 8.91839 11.2634 8.9567C9.65599 9.99009 8.85205 12.0379 8.85205 14.3919C8.85205 16.0187 19.0909 16.0187 19.0909 14.3919C19.0909 12.038 18.2871 9.99016 16.6603 8.9567H16.6604Z" fill="#848484"/>
<path d="M17.0231 5.62674C17.0231 7.31786 15.6522 8.6889 13.9611 8.6889C12.2698 8.6889 10.8989 7.31789 10.8989 5.62674C10.8989 3.93558 12.2698 2.56472 13.9611 2.56472C15.6522 2.56472 17.0231 3.93558 17.0231 5.62674Z" fill="#848484"/>
</svg>
