<svg width="22" height="22" viewBox="0 0 22 22" fill="none" xmlns="http://www.w3.org/2000/svg">
<path d="M8.35012 18.3711L8.93457 19.6856C9.1083 20.0768 9.39184 20.4093 9.75079 20.6426C10.1097 20.8759 10.5287 21.0001 10.9568 21C11.3849 21.0001 11.8038 20.8759 12.1628 20.6426C12.5217 20.4093 12.8053 20.0768 12.979 19.6856L13.5635 18.3711C13.7715 17.9047 14.1215 17.5159 14.5635 17.26C15.0082 17.0034 15.5228 16.8941 16.0335 16.9478L17.4635 17.1C17.8891 17.145 18.3187 17.0656 18.7001 16.8713C19.0816 16.6771 19.3984 16.3763 19.6123 16.0056C19.8265 15.635 19.9286 15.2103 19.9061 14.7829C19.8836 14.3555 19.7376 13.9438 19.4857 13.5978L18.639 12.4344C18.3375 12.0171 18.1764 11.5148 18.179 11C18.1789 10.4866 18.3415 9.98635 18.6435 9.57111L19.4901 8.40778C19.742 8.06175 19.888 7.65007 19.9105 7.22267C19.933 6.79528 19.831 6.37054 19.6168 6C19.4029 5.62923 19.086 5.32849 18.7046 5.13423C18.3232 4.93997 17.8936 4.86053 17.4679 4.90556L16.0379 5.05778C15.5272 5.11141 15.0127 5.00212 14.5679 4.74556C14.125 4.48825 13.775 4.09736 13.5679 3.62889L12.979 2.31444C12.8053 1.92317 12.5217 1.59072 12.1628 1.3574C11.8038 1.12408 11.3849 0.99993 10.9568 1C10.5287 0.99993 10.1097 1.12408 9.75079 1.3574C9.39184 1.59072 9.1083 1.92317 8.93457 2.31444L8.35012 3.62889C8.14305 4.09736 7.79299 4.48825 7.35012 4.74556C6.90534 5.00212 6.39079 5.11141 5.88012 5.05778L4.44568 4.90556C4.02001 4.86053 3.59042 4.93997 3.20899 5.13423C2.82757 5.32849 2.51069 5.62923 2.29679 6C2.08261 6.37054 1.98057 6.79528 2.00305 7.22267C2.02554 7.65007 2.17158 8.06175 2.42345 8.40778L3.27012 9.57111C3.57206 9.98635 3.73466 10.4866 3.73456 11C3.73466 11.5134 3.57206 12.0137 3.27012 12.4289L2.42345 13.5922C2.17158 13.9382 2.02554 14.3499 2.00305 14.7773C1.98057 15.2047 2.08261 15.6295 2.29679 16C2.5109 16.3706 2.82782 16.6712 3.20918 16.8654C3.59055 17.0596 4.02004 17.1392 4.44568 17.0944L5.87568 16.9422C6.38634 16.8886 6.90089 16.9979 7.34568 17.2544C7.7902 17.511 8.14188 17.902 8.35012 18.3711Z" stroke="#848484" stroke-width="2" stroke-linecap="round" stroke-linejoin="round"/>
<path d="M10.955 14C12.6119 14 13.955 12.6569 13.955 11C13.955 9.34315 12.6119 8 10.955 8C9.29815 8 7.955 9.34315 7.955 11C7.955 12.6569 9.29815 14 10.955 14Z" stroke="#848484" stroke-width="2" stroke-linecap="round" stroke-linejoin="round"/>
</svg>
