<svg width="26" height="26" viewBox="0 0 26 26" fill="none" xmlns="http://www.w3.org/2000/svg">
<path d="M8.2 15.4C8.2 15.4 10 17.8 13 17.8C16 17.8 17.8 15.4 17.8 15.4M16.6 9.4H16.612M8.2 9.4H10.6M25 13C25 19.6274 19.6274 25 13 25C6.37258 25 1 19.6274 1 13C1 6.37258 6.37258 1 13 1C19.6274 1 25 6.37258 25 13ZM17.2 9.4C17.2 9.73137 16.9314 10 16.6 10C16.2686 10 16 9.73137 16 9.4C16 9.06863 16.2686 8.8 16.6 8.8C16.9314 8.8 17.2 9.06863 17.2 9.4Z" stroke="#ED7868" stroke-width="2" stroke-linecap="round" stroke-linejoin="round"/>
</svg>
